<svg width="44" height="44" viewBox="0 0 44 44" fill="none" xmlns="http://www.w3.org/2000/svg">
<path d="M36 20H8V36H36V20Z" stroke="#AD343E" stroke-width="2.5" stroke-linecap="round" stroke-linejoin="round"/>
<path d="M29 26H15" stroke="#AD343E" stroke-width="2.5" stroke-linecap="round" stroke-linejoin="round"/>
<path d="M27 10C28.1046 10 29 9.10457 29 8C29 6.89543 28.1046 6 27 6C25.8954 6 25 6.89543 25 8C25 9.10457 25.8954 10 27 10Z" fill="#474747"/>
<path d="M35 10C36.1046 10 37 9.10457 37 8C37 6.89543 36.1046 6 35 6C33.8954 6 33 6.89543 33 8C33 9.10457 33.8954 10 35 10Z" fill="#474747"/>
<path d="M38 2H6C3.79086 2 2 3.79086 2 6V38C2 40.2091 3.79086 42 6 42H38C40.2091 42 42 40.2091 42 38V6C42 3.79086 40.2091 2 38 2Z" stroke="#474747" stroke-width="2.5" stroke-linecap="round" stroke-linejoin="round"/>
<path d="M8 8H14" stroke="#474747" stroke-width="2.5" stroke-linecap="round" stroke-linejoin="round"/>
<path d="M2 14H42" stroke="#474747" stroke-width="2.5" stroke-linecap="round" stroke-linejoin="round"/>
</svg>
