<svg width="281" height="55" viewBox="0 0 281 55" fill="none" xmlns="http://www.w3.org/2000/svg">
<g clip-path="url(#clip0_10_925)">
<path d="M48.2447 0.803952C47.9356 0.62592 47.5672 0.57519 47.2201 0.662861C46.873 0.750533 46.5754 0.969467 46.3925 1.27175L36.7059 17.3632C36.6562 17.4466 36.6161 17.5352 36.5863 17.6273C35.5025 18.0213 34.4909 18.5849 33.5908 19.296C30.6557 14.4065 25.278 11.3277 19.4029 11.3277C10.3375 11.3277 2.96345 18.5484 2.93818 27.4318H0.80127L0.99234 28.9241C2.10425 37.5971 7.559 45.1726 15.4021 49.1616V54.2827H35.6396C38.2048 54.2827 40.2918 52.2344 40.2918 49.7183V49.1623C48.1374 45.1714 53.5897 37.5959 54.7041 28.9241L54.8951 27.4306H51.0361C51.0183 22.8964 48.053 19.0416 43.9283 17.5862L56.0138 6.18186C56.5513 5.67478 56.5685 4.83467 56.0496 4.30763C55.9266 4.18216 55.7796 4.08167 55.617 4.0119C55.4545 3.94214 55.2794 3.90447 55.102 3.90104C54.9246 3.89762 54.7482 3.92851 54.5829 3.99195C54.4177 4.05539 54.2668 4.15013 54.1389 4.27077L40.6764 16.9764C40.5556 16.9715 40.4354 16.9582 40.3128 16.9582C40.2351 16.9582 40.1605 16.9691 40.0841 16.9703L48.7217 2.62016C48.812 2.47019 48.8713 2.30425 48.8962 2.13181C48.9211 1.95937 48.9111 1.78381 48.8668 1.61516C48.8225 1.4465 48.7448 1.28806 48.638 1.14887C48.5313 1.00968 48.3976 0.892478 48.2447 0.803952ZM19.4023 13.9804C24.5778 13.9804 29.2954 16.8374 31.6419 21.3135C30.7864 22.4673 30.1799 23.78 29.8594 25.1714C28.7838 20.4764 24.5076 16.957 19.4023 16.957C13.5056 16.957 8.7085 21.652 8.68323 27.4312H5.64336C5.66802 20.011 11.8291 13.9804 19.4023 13.9804ZM19.4023 22.5936C16.6718 22.5936 14.4499 24.7604 14.4246 27.4312H11.389C11.4143 23.1146 14.9972 19.6103 19.4023 19.6103C23.8086 19.6103 27.3952 23.1146 27.418 27.4312H24.3787C24.3547 24.7604 22.1327 22.5936 19.4023 22.5936ZM21.6717 27.4318H17.1329C17.1449 26.8488 17.3894 26.2936 17.8138 25.8851C18.2382 25.4766 18.8088 25.2473 19.4035 25.2463C19.9979 25.2475 20.5682 25.4769 20.9922 25.8854C21.4162 26.2939 21.6601 26.849 21.6717 27.4318ZM51.7782 30.0845C50.2749 37.793 44.9441 44.3646 37.5558 47.5123H33.2259V50.1655H37.5268C37.4256 50.5819 37.1844 50.9526 36.8422 51.2183C36.5 51.4839 36.0766 51.6289 35.6402 51.63H18.1079V50.1655H23.1799V47.5123H18.1406C10.7523 44.3664 5.42086 37.793 3.91633 30.0845H51.7782ZM38.044 27.4318C38.0559 26.849 38.3 26.294 38.724 25.8855C39.1481 25.4771 39.7184 25.2476 40.3128 25.2463C40.9077 25.2468 41.4788 25.4759 41.9035 25.8845C42.3282 26.293 42.5727 26.8485 42.5847 27.4318H38.044ZM40.3128 19.6109C44.721 19.6109 48.3088 23.1152 48.3322 27.4318H45.2911C45.2664 24.761 43.0438 22.5942 40.3128 22.5942C37.5823 22.5942 35.3622 24.761 35.3375 27.4318H32.2995C32.3242 23.1152 35.9071 19.6109 40.3128 19.6109Z" fill="#AD343E"/>
<path d="M39.7358 42.9139C39.9521 42.9139 40.1709 42.8637 40.3725 42.7568C42.0244 41.8897 43.4741 40.6947 44.6292 39.248C45.7843 37.8012 46.6195 36.1345 47.0815 34.3539C47.1258 34.1848 47.1356 34.0088 47.1104 33.8361C47.0851 33.6633 47.0254 33.4971 46.9345 33.347C46.8436 33.1969 46.7234 33.0659 46.5808 32.9615C46.4381 32.8571 46.2759 32.7813 46.1033 32.7385C45.9308 32.6957 45.7513 32.6867 45.5752 32.7121C45.3991 32.7374 45.2298 32.7967 45.0771 32.8863C44.9244 32.976 44.7912 33.0943 44.6852 33.2346C44.5793 33.3748 44.5026 33.5342 44.4595 33.7035C44.0907 35.1266 43.4235 36.4588 42.5006 37.6151C41.5777 38.7714 40.4192 39.7265 39.0991 40.4196C38.8329 40.5585 38.6217 40.7808 38.4993 41.051C38.3768 41.3213 38.35 41.6239 38.4232 41.9108C38.4965 42.1976 38.6655 42.4522 38.9033 42.634C39.1412 42.8158 39.4342 42.9143 39.7358 42.9139Z" fill="#474747"/>
<path d="M36.4626 45.0064C37.3484 45.0064 38.0664 44.3023 38.0664 43.4337C38.0664 42.5652 37.3484 41.8611 36.4626 41.8611C35.5769 41.8611 34.8589 42.5652 34.8589 43.4337C34.8589 44.3023 35.5769 45.0064 36.4626 45.0064Z" fill="#474747"/>
</g>
<path d="M88.8327 13.8347C91.9616 13.8347 94.2371 14.3467 95.6594 15.3707C97.0816 16.3662 97.7927 17.7173 97.7927 19.424C97.7927 20.9031 97.3234 22.24 96.3847 23.4347C95.4745 24.6293 94.2229 25.6391 92.63 26.464C91.0371 27.2604 89.2309 27.8151 87.2114 28.128C90.2265 28.3556 92.4309 29.0951 93.8247 30.3467C95.2469 31.5982 95.958 33.0916 95.958 34.8267C95.958 36.3627 95.5883 37.6996 94.8487 38.8373C94.1376 39.9751 93.1563 40.928 91.9047 41.696C90.6816 42.464 89.2451 43.0471 87.5954 43.4453C85.9456 43.8151 84.1962 44 82.3474 44C81.3802 44 80.3136 43.9858 79.1474 43.9573C78.0096 43.9004 76.6016 43.872 74.9234 43.872C74.2122 43.872 73.4727 43.8862 72.7047 43.9147C71.9367 43.9147 71.2114 43.9289 70.5287 43.9573C69.846 43.9573 69.2629 43.9716 68.7794 44L68.95 43.1467C69.9171 43.0898 70.6709 42.976 71.2114 42.8053C71.7518 42.6347 72.1785 42.2933 72.4914 41.7813C72.8042 41.2693 73.0887 40.5013 73.3447 39.4773L78.9767 18.3147C79.1758 17.4613 79.2896 16.7787 79.318 16.2667C79.3465 15.7262 79.1474 15.328 78.7207 15.072C78.3225 14.7876 77.5687 14.6453 76.4594 14.6453L76.6727 13.792C77.1562 13.8204 77.7251 13.8489 78.3794 13.8773C79.062 13.8773 79.7874 13.8916 80.5554 13.92C81.3234 13.92 82.0345 13.92 82.6887 13.92C83.9118 13.92 84.9927 13.9058 85.9314 13.8773C86.8985 13.8489 87.8656 13.8347 88.8327 13.8347ZM80.854 28.6827L81.0247 27.9573H84.182C85.8034 27.9573 87.1829 27.5449 88.3207 26.72C89.4869 25.8667 90.3687 24.7573 90.966 23.392C91.5918 22.0267 91.9047 20.5902 91.9047 19.0827C91.9047 17.6604 91.6202 16.5653 91.0514 15.7973C90.5109 15.0293 89.558 14.6453 88.1927 14.6453C87.1971 14.6453 86.486 14.8444 86.0594 15.2427C85.6327 15.6124 85.2629 16.4231 84.95 17.6747L79.19 39.4773C79.0194 40.1884 78.9056 40.8142 78.8487 41.3547C78.8202 41.8951 78.9625 42.3076 79.2754 42.592C79.5882 42.8764 80.1714 43.0187 81.0247 43.0187C83.0442 43.0187 84.694 42.6347 85.974 41.8667C87.254 41.0987 88.2069 40.0462 88.8327 38.7093C89.4585 37.344 89.7714 35.808 89.7714 34.1013C89.7714 33.0489 89.5865 32.1244 89.2167 31.328C88.8754 30.5031 88.3207 29.8631 87.5527 29.408C86.7847 28.9244 85.7607 28.6827 84.4807 28.6827H80.854ZM106.058 14.6453C106.143 13.5929 106.57 12.7538 107.338 12.128C108.106 11.5022 109.002 11.1893 110.026 11.1893C110.964 11.1893 111.675 11.4596 112.159 12C112.671 12.512 112.884 13.1804 112.799 14.0053C112.714 14.9724 112.287 15.7831 111.519 16.4373C110.751 17.0916 109.855 17.4187 108.831 17.4187C107.892 17.4187 107.167 17.1627 106.655 16.6507C106.171 16.1102 105.972 15.4418 106.058 14.6453ZM104.564 25.6107C105.076 24.0747 104.906 23.3067 104.052 23.3067C103.483 23.3067 102.971 23.6053 102.516 24.2027C102.061 24.7716 101.578 25.696 101.066 26.976L100.34 28.9813H99.5297L100.639 25.7813C101.066 24.6436 101.578 23.7618 102.175 23.136C102.772 22.4818 103.441 22.0267 104.18 21.7707C104.92 21.5147 105.645 21.3867 106.356 21.3867C107.352 21.3867 108.106 21.5716 108.618 21.9413C109.13 22.3111 109.471 22.7947 109.642 23.392C109.812 23.9893 109.855 24.6436 109.77 25.3547C109.684 26.0373 109.528 26.7058 109.3 27.36L104.778 40.3733C104.522 41.1413 104.451 41.7244 104.564 42.1227C104.678 42.4924 104.948 42.6773 105.375 42.6773C105.83 42.6773 106.285 42.4356 106.74 41.952C107.224 41.44 107.736 40.4587 108.276 39.008L109.002 37.088H109.812L108.746 40.2027C108.319 41.3404 107.807 42.2364 107.21 42.8907C106.612 43.5164 105.958 43.9573 105.247 44.2133C104.536 44.4693 103.839 44.5973 103.156 44.5973C101.905 44.5973 100.995 44.3271 100.426 43.7867C99.8568 43.2178 99.5724 42.4498 99.5724 41.4827C99.5724 40.4871 99.7999 39.3493 100.255 38.0693L104.564 25.6107ZM114.379 43.36C114.607 43.4738 114.848 43.5733 115.104 43.6587C115.36 43.7156 115.716 43.744 116.171 43.744C117.252 43.744 118.148 43.4027 118.859 42.72C119.599 42.0089 119.968 41.0276 119.968 39.776C119.968 38.8658 119.769 37.9413 119.371 37.0027C119.001 36.064 118.432 35.0258 117.664 33.888C116.982 32.8924 116.356 31.9111 115.787 30.944C115.247 29.9769 114.976 28.8676 114.976 27.616C114.976 26.3929 115.275 25.3262 115.872 24.416C116.47 23.4773 117.323 22.7378 118.432 22.1973C119.542 21.6569 120.836 21.3867 122.315 21.3867C123.282 21.3867 124.235 21.5004 125.174 21.728C126.112 21.9556 126.88 22.368 127.478 22.9653C128.075 23.5627 128.374 24.4302 128.374 25.568C128.374 25.9662 128.288 26.3929 128.118 26.848C127.947 27.2747 127.691 27.6444 127.35 27.9573C127.008 28.2702 126.553 28.4267 125.984 28.4267C125.387 28.4267 124.889 28.1991 124.491 27.744C124.093 27.2604 123.894 26.6489 123.894 25.9093C123.894 25.2551 124.007 24.6436 124.235 24.0747C124.491 23.5058 124.79 23.008 125.131 22.5813C124.733 22.3538 124.164 22.24 123.424 22.24C122.4 22.24 121.575 22.5671 120.95 23.2213C120.324 23.8756 120.011 24.8 120.011 25.9947C120.011 26.6204 120.111 27.2178 120.31 27.7867C120.537 28.3271 120.836 28.896 121.206 29.4933C121.604 30.0622 122.045 30.7307 122.528 31.4987C123.325 32.7787 123.951 33.9307 124.406 34.9547C124.861 35.9502 125.088 36.9742 125.088 38.0267C125.088 39.2782 124.747 40.4018 124.064 41.3973C123.41 42.3929 122.5 43.1751 121.334 43.744C120.167 44.3129 118.802 44.5973 117.238 44.5973C116.128 44.5973 115.062 44.4409 114.038 44.128C113.042 43.8436 112.217 43.36 111.563 42.6773C110.937 41.9947 110.624 41.056 110.624 39.8613C110.624 39.2071 110.809 38.6098 111.179 38.0693C111.52 37.5004 112.061 37.216 112.8 37.216C113.54 37.216 114.095 37.5147 114.464 38.112C114.834 38.7093 115.019 39.4489 115.019 40.3307C115.019 40.9564 114.934 41.5396 114.763 42.08C114.621 42.592 114.493 43.0187 114.379 43.36ZM145.178 21.984L145.05 22.8373H130.757L130.97 21.984H145.178ZM134.81 40.3733C134.582 41.1698 134.611 41.7529 134.895 42.1227C135.208 42.4924 135.621 42.6773 136.133 42.6773C136.73 42.6773 137.327 42.3929 137.925 41.824C138.55 41.2551 139.119 40.2596 139.631 38.8373L140.271 37.088H141.082L140.229 39.648C139.631 41.4116 138.806 42.6773 137.754 43.4453C136.702 44.2133 135.45 44.5973 133.999 44.5973C132.719 44.5973 131.738 44.3129 131.055 43.744C130.401 43.1751 130.003 42.4071 129.861 41.44C129.747 40.4444 129.875 39.3209 130.245 38.0693L136.687 15.584C137.711 15.5556 138.664 15.4987 139.546 15.4133C140.456 15.328 141.31 15.1858 142.106 14.9867L134.81 40.3733ZM149.03 44H143.782L148.902 25.6107C149.158 24.7573 149.243 24.16 149.158 23.8187C149.073 23.4773 148.817 23.3067 148.39 23.3067C147.85 23.3067 147.352 23.5769 146.897 24.1173C146.442 24.6578 145.972 25.6107 145.489 26.976L144.763 28.9813H143.953L145.062 25.7813C145.46 24.6436 145.958 23.7618 146.555 23.136C147.153 22.4818 147.807 22.0267 148.518 21.7707C149.229 21.5147 149.954 21.3867 150.694 21.3867C151.604 21.3867 152.273 21.5716 152.699 21.9413C153.154 22.3111 153.439 22.7947 153.553 23.392C153.695 23.9893 153.723 24.6436 153.638 25.3547C153.581 26.0373 153.467 26.7058 153.297 27.36L149.03 44ZM159.953 22.368C159.327 22.368 158.687 22.5956 158.033 23.0507C157.378 23.4773 156.696 24.1742 155.985 25.1413C155.274 26.1084 154.548 27.3884 153.809 28.9813C153.098 30.5458 152.358 32.4658 151.59 34.7413C150.822 36.9884 150.054 39.648 149.286 42.72L150.31 37.0453C151.192 34.0587 152.017 31.5698 152.785 29.5787C153.581 27.5591 154.349 25.952 155.089 24.7573C155.857 23.5342 156.667 22.6667 157.521 22.1547C158.374 21.6427 159.298 21.3867 160.294 21.3867C161.318 21.3867 162.1 21.6853 162.641 22.2827C163.21 22.88 163.494 23.6196 163.494 24.5013C163.494 25.2124 163.323 25.8809 162.982 26.5067C162.641 27.104 162.186 27.5876 161.617 27.9573C161.076 28.2987 160.45 28.4693 159.739 28.4693C159.028 28.4693 158.459 28.2844 158.033 27.9147C157.634 27.5449 157.435 27.0044 157.435 26.2933C157.435 25.6676 157.578 25.0987 157.862 24.5867C158.146 24.0747 158.516 23.648 158.971 23.3067C159.426 22.9369 159.924 22.6809 160.465 22.5387C160.408 22.4818 160.337 22.4391 160.251 22.4107C160.166 22.3822 160.066 22.368 159.953 22.368ZM174.932 22.24C174.192 22.24 173.439 22.624 172.671 23.392C171.903 24.1316 171.177 25.1556 170.495 26.464C169.812 27.744 169.186 29.1804 168.617 30.7733C168.077 32.3662 167.65 34.016 167.337 35.7227C167.024 37.4009 166.868 39.008 166.868 40.544C166.868 41.6818 167.01 42.5067 167.295 43.0187C167.608 43.5022 168.063 43.744 168.66 43.744C169.371 43.744 170.111 43.3742 170.879 42.6347C171.647 41.8951 172.372 40.8996 173.055 39.648C173.766 38.368 174.392 36.9458 174.932 35.3813C175.472 33.7884 175.899 32.1387 176.212 30.432C176.525 28.7253 176.681 27.0613 176.681 25.44C176.681 24.2453 176.525 23.4204 176.212 22.9653C175.928 22.4818 175.501 22.24 174.932 22.24ZM161.833 37.6853C161.833 36.4053 162.004 35.0258 162.345 33.5467C162.715 32.0676 163.256 30.6169 163.967 29.1947C164.678 27.744 165.56 26.4356 166.612 25.2693C167.693 24.0747 168.944 23.136 170.367 22.4533C171.789 21.7422 173.396 21.3867 175.188 21.3867C177.236 21.3867 178.829 21.9698 179.967 23.136C181.133 24.2738 181.716 25.9947 181.716 28.2987C181.716 29.5787 181.531 30.9582 181.161 32.4373C180.82 33.9164 180.294 35.3813 179.583 36.832C178.872 38.2542 177.976 39.5627 176.895 40.7573C175.842 41.9236 174.605 42.8622 173.183 43.5733C171.76 44.256 170.153 44.5973 168.361 44.5973C166.313 44.5973 164.706 44.0142 163.54 42.848C162.402 41.6818 161.833 39.9609 161.833 37.6853ZM211.658 13.8347C214.787 13.8347 217.062 14.3467 218.484 15.3707C219.907 16.3662 220.618 17.7173 220.618 19.424C220.618 20.9031 220.148 22.24 219.21 23.4347C218.299 24.6293 217.048 25.6391 215.455 26.464C213.862 27.2604 212.056 27.8151 210.036 28.128C213.051 28.3556 215.256 29.0951 216.65 30.3467C218.072 31.5982 218.783 33.0916 218.783 34.8267C218.783 36.3627 218.413 37.6996 217.674 38.8373C216.963 39.9751 215.981 40.928 214.73 41.696C213.507 42.464 212.07 43.0471 210.42 43.4453C208.771 43.8151 207.021 44 205.172 44C204.205 44 203.139 43.9858 201.972 43.9573C200.835 43.9004 199.427 43.872 197.748 43.872C197.037 43.872 196.298 43.8862 195.53 43.9147C194.762 43.9147 194.036 43.9289 193.354 43.9573C192.671 43.9573 192.088 43.9716 191.604 44L191.775 43.1467C192.742 43.0898 193.496 42.976 194.036 42.8053C194.577 42.6347 195.003 42.2933 195.316 41.7813C195.629 41.2693 195.914 40.5013 196.17 39.4773L201.802 18.3147C202.001 17.4613 202.115 16.7787 202.143 16.2667C202.171 15.7262 201.972 15.328 201.546 15.072C201.147 14.7876 200.394 14.6453 199.284 14.6453L199.498 13.792C199.981 13.8204 200.55 13.8489 201.204 13.8773C201.887 13.8773 202.612 13.8916 203.38 13.92C204.148 13.92 204.859 13.92 205.514 13.92C206.737 13.92 207.818 13.9058 208.756 13.8773C209.723 13.8489 210.691 13.8347 211.658 13.8347ZM203.679 28.6827L203.85 27.9573H207.007C208.628 27.9573 210.008 27.5449 211.146 26.72C212.312 25.8667 213.194 24.7573 213.791 23.392C214.417 22.0267 214.73 20.5902 214.73 19.0827C214.73 17.6604 214.445 16.5653 213.876 15.7973C213.336 15.0293 212.383 14.6453 211.018 14.6453C210.022 14.6453 209.311 14.8444 208.884 15.2427C208.458 15.6124 208.088 16.4231 207.775 17.6747L202.015 39.4773C201.844 40.1884 201.731 40.8142 201.674 41.3547C201.645 41.8951 201.787 42.3076 202.1 42.592C202.413 42.8764 202.996 43.0187 203.85 43.0187C205.869 43.0187 207.519 42.6347 208.799 41.8667C210.079 41.0987 211.032 40.0462 211.658 38.7093C212.283 37.344 212.596 35.808 212.596 34.1013C212.596 33.0489 212.411 32.1244 212.042 31.328C211.7 30.5031 211.146 29.8631 210.378 29.408C209.61 28.9244 208.586 28.6827 207.306 28.6827H203.679ZM226.664 40.3733C226.436 41.1413 226.38 41.7244 226.493 42.1227C226.636 42.4924 226.92 42.6773 227.347 42.6773C227.745 42.6773 228.172 42.4356 228.627 41.952C229.11 41.44 229.622 40.4587 230.163 39.008L230.845 37.088H231.656L230.589 40.2027C230.191 41.3404 229.693 42.2364 229.096 42.8907C228.499 43.5164 227.859 43.9573 227.176 44.2133C226.493 44.4693 225.796 44.5973 225.085 44.5973C224.175 44.5973 223.45 44.4267 222.909 44.0853C222.369 43.744 221.999 43.2747 221.8 42.6773C221.601 42.08 221.53 41.3973 221.587 40.6293C221.644 39.8329 221.814 38.9796 222.099 38.0693L228.883 15.5413C229.167 14.5742 229.139 13.8631 228.797 13.408C228.456 12.9529 227.588 12.7253 226.195 12.7253L226.493 11.8293C228.342 11.8009 229.992 11.6444 231.443 11.36C232.893 11.0471 234.287 10.6204 235.624 10.08L226.664 40.3733ZM240.983 14.6453C241.068 13.5929 241.495 12.7538 242.263 12.128C243.031 11.5022 243.927 11.1893 244.951 11.1893C245.889 11.1893 246.6 11.4596 247.084 12C247.596 12.512 247.809 13.1804 247.724 14.0053C247.639 14.9724 247.212 15.7831 246.444 16.4373C245.676 17.0916 244.78 17.4187 243.756 17.4187C242.817 17.4187 242.092 17.1627 241.58 16.6507C241.096 16.1102 240.897 15.4418 240.983 14.6453ZM239.489 25.6107C240.001 24.0747 239.831 23.3067 238.977 23.3067C238.408 23.3067 237.896 23.6053 237.441 24.2027C236.986 24.7716 236.503 25.696 235.991 26.976L235.265 28.9813H234.455L235.564 25.7813C235.991 24.6436 236.503 23.7618 237.1 23.136C237.697 22.4818 238.366 22.0267 239.105 21.7707C239.845 21.5147 240.57 21.3867 241.281 21.3867C242.277 21.3867 243.031 21.5716 243.543 21.9413C244.055 22.3111 244.396 22.7947 244.567 23.392C244.737 23.9893 244.78 24.6436 244.695 25.3547C244.609 26.0373 244.453 26.7058 244.225 27.36L239.703 40.3733C239.447 41.1413 239.376 41.7244 239.489 42.1227C239.603 42.4924 239.873 42.6773 240.3 42.6773C240.755 42.6773 241.21 42.4356 241.665 41.952C242.149 41.44 242.661 40.4587 243.201 39.008L243.927 37.088H244.737L243.671 40.2027C243.244 41.3404 242.732 42.2364 242.135 42.8907C241.537 43.5164 240.883 43.9573 240.172 44.2133C239.461 44.4693 238.764 44.5973 238.081 44.5973C236.83 44.5973 235.92 44.3271 235.351 43.7867C234.782 43.2178 234.497 42.4498 234.497 41.4827C234.497 40.4871 234.725 39.3493 235.18 38.0693L239.489 25.6107ZM249.304 43.36C249.532 43.4738 249.773 43.5733 250.029 43.6587C250.285 43.7156 250.641 43.744 251.096 43.744C252.177 43.744 253.073 43.4027 253.784 42.72C254.524 42.0089 254.893 41.0276 254.893 39.776C254.893 38.8658 254.694 37.9413 254.296 37.0027C253.926 36.064 253.357 35.0258 252.589 33.888C251.907 32.8924 251.281 31.9111 250.712 30.944C250.172 29.9769 249.901 28.8676 249.901 27.616C249.901 26.3929 250.2 25.3262 250.797 24.416C251.395 23.4773 252.248 22.7378 253.357 22.1973C254.467 21.6569 255.761 21.3867 257.24 21.3867C258.207 21.3867 259.16 21.5004 260.099 21.728C261.037 21.9556 261.805 22.368 262.403 22.9653C263 23.5627 263.299 24.4302 263.299 25.568C263.299 25.9662 263.213 26.3929 263.043 26.848C262.872 27.2747 262.616 27.6444 262.275 27.9573C261.933 28.2702 261.478 28.4267 260.909 28.4267C260.312 28.4267 259.814 28.1991 259.416 27.744C259.018 27.2604 258.819 26.6489 258.819 25.9093C258.819 25.2551 258.932 24.6436 259.16 24.0747C259.416 23.5058 259.715 23.008 260.056 22.5813C259.658 22.3538 259.089 22.24 258.349 22.24C257.325 22.24 256.5 22.5671 255.875 23.2213C255.249 23.8756 254.936 24.8 254.936 25.9947C254.936 26.6204 255.036 27.2178 255.235 27.7867C255.462 28.3271 255.761 28.896 256.131 29.4933C256.529 30.0622 256.97 30.7307 257.453 31.4987C258.25 32.7787 258.876 33.9307 259.331 34.9547C259.786 35.9502 260.013 36.9742 260.013 38.0267C260.013 39.2782 259.672 40.4018 258.989 41.3973C258.335 42.3929 257.425 43.1751 256.259 43.744C255.092 44.3129 253.727 44.5973 252.163 44.5973C251.053 44.5973 249.987 44.4409 248.963 44.128C247.967 43.8436 247.142 43.36 246.488 42.6773C245.862 41.9947 245.549 41.056 245.549 39.8613C245.549 39.2071 245.734 38.6098 246.104 38.0693C246.445 37.5004 246.986 37.216 247.725 37.216C248.465 37.216 249.02 37.5147 249.389 38.112C249.759 38.7093 249.944 39.4489 249.944 40.3307C249.944 40.9564 249.859 41.5396 249.688 42.08C249.546 42.592 249.418 43.0187 249.304 43.36ZM266.279 43.36C266.507 43.4738 266.748 43.5733 267.004 43.6587C267.26 43.7156 267.616 43.744 268.071 43.744C269.152 43.744 270.048 43.4027 270.759 42.72C271.499 42.0089 271.868 41.0276 271.868 39.776C271.868 38.8658 271.669 37.9413 271.271 37.0027C270.901 36.064 270.332 35.0258 269.564 33.888C268.882 32.8924 268.256 31.9111 267.687 30.944C267.147 29.9769 266.876 28.8676 266.876 27.616C266.876 26.3929 267.175 25.3262 267.772 24.416C268.37 23.4773 269.223 22.7378 270.332 22.1973C271.442 21.6569 272.736 21.3867 274.215 21.3867C275.182 21.3867 276.135 21.5004 277.074 21.728C278.012 21.9556 278.78 22.368 279.378 22.9653C279.975 23.5627 280.274 24.4302 280.274 25.568C280.274 25.9662 280.188 26.3929 280.018 26.848C279.847 27.2747 279.591 27.6444 279.25 27.9573C278.908 28.2702 278.453 28.4267 277.884 28.4267C277.287 28.4267 276.789 28.1991 276.391 27.744C275.993 27.2604 275.794 26.6489 275.794 25.9093C275.794 25.2551 275.907 24.6436 276.135 24.0747C276.391 23.5058 276.69 23.008 277.031 22.5813C276.633 22.3538 276.064 22.24 275.324 22.24C274.3 22.24 273.475 22.5671 272.85 23.2213C272.224 23.8756 271.911 24.8 271.911 25.9947C271.911 26.6204 272.011 27.2178 272.21 27.7867C272.437 28.3271 272.736 28.896 273.106 29.4933C273.504 30.0622 273.945 30.7307 274.428 31.4987C275.225 32.7787 275.851 33.9307 276.306 34.9547C276.761 35.9502 276.988 36.9742 276.988 38.0267C276.988 39.2782 276.647 40.4018 275.964 41.3973C275.31 42.3929 274.4 43.1751 273.234 43.744C272.067 44.3129 270.702 44.5973 269.138 44.5973C268.028 44.5973 266.962 44.4409 265.938 44.128C264.942 43.8436 264.117 43.36 263.463 42.6773C262.837 41.9947 262.524 41.056 262.524 39.8613C262.524 39.2071 262.709 38.6098 263.079 38.0693C263.42 37.5004 263.961 37.216 264.7 37.216C265.44 37.216 265.995 37.5147 266.364 38.112C266.734 38.7093 266.919 39.4489 266.919 40.3307C266.919 40.9564 266.834 41.5396 266.663 42.08C266.521 42.592 266.393 43.0187 266.279 43.36Z" fill="#474747"/>
<defs>
<clipPath id="clip0_10_925">
<rect width="56.0884" height="55" fill="white" transform="translate(0.5)"/>
</clipPath>
</defs>
</svg>
