<svg width="57" height="55" viewBox="0 0 57 55" fill="none" xmlns="http://www.w3.org/2000/svg">
<g clip-path="url(#clip0_8_1982)">
<path d="M48.2447 0.803952C47.9356 0.62592 47.5672 0.57519 47.2201 0.662861C46.873 0.750533 46.5754 0.969467 46.3925 1.27175L36.7059 17.3632C36.6562 17.4466 36.6161 17.5352 36.5863 17.6273C35.5025 18.0213 34.4909 18.5849 33.5908 19.296C30.6557 14.4065 25.278 11.3277 19.4029 11.3277C10.3375 11.3277 2.96345 18.5484 2.93818 27.4318H0.80127L0.99234 28.9241C2.10425 37.5971 7.559 45.1726 15.4021 49.1616V54.2827H35.6396C38.2048 54.2827 40.2918 52.2344 40.2918 49.7183V49.1623C48.1374 45.1714 53.5897 37.5959 54.7041 28.9241L54.8951 27.4306H51.0361C51.0183 22.8964 48.053 19.0416 43.9283 17.5862L56.0138 6.18186C56.5513 5.67478 56.5685 4.83467 56.0496 4.30763C55.9266 4.18216 55.7796 4.08167 55.617 4.0119C55.4545 3.94214 55.2794 3.90447 55.102 3.90104C54.9246 3.89762 54.7482 3.92851 54.5829 3.99195C54.4177 4.05539 54.2668 4.15013 54.1389 4.27077L40.6764 16.9764C40.5556 16.9715 40.4354 16.9582 40.3128 16.9582C40.2351 16.9582 40.1605 16.9691 40.0841 16.9703L48.7217 2.62016C48.812 2.47019 48.8713 2.30425 48.8962 2.13181C48.9211 1.95937 48.9111 1.78381 48.8668 1.61516C48.8225 1.4465 48.7448 1.28806 48.638 1.14887C48.5313 1.00968 48.3976 0.892478 48.2447 0.803952ZM19.4023 13.9804C24.5778 13.9804 29.2954 16.8374 31.6419 21.3135C30.7864 22.4673 30.1799 23.78 29.8594 25.1714C28.7838 20.4764 24.5076 16.957 19.4023 16.957C13.5056 16.957 8.7085 21.652 8.68323 27.4312H5.64336C5.66802 20.011 11.8291 13.9804 19.4023 13.9804ZM19.4023 22.5936C16.6718 22.5936 14.4499 24.7604 14.4246 27.4312H11.389C11.4143 23.1146 14.9972 19.6103 19.4023 19.6103C23.8086 19.6103 27.3952 23.1146 27.418 27.4312H24.3787C24.3547 24.7604 22.1327 22.5936 19.4023 22.5936ZM21.6717 27.4318H17.1329C17.1449 26.8488 17.3894 26.2936 17.8138 25.8851C18.2382 25.4766 18.8088 25.2473 19.4035 25.2463C19.9979 25.2475 20.5682 25.4769 20.9922 25.8854C21.4162 26.2939 21.6601 26.849 21.6717 27.4318ZM51.7782 30.0845C50.2749 37.793 44.9441 44.3646 37.5558 47.5123H33.2259V50.1655H37.5268C37.4256 50.5819 37.1844 50.9526 36.8422 51.2183C36.5 51.4839 36.0766 51.6289 35.6402 51.63H18.1079V50.1655H23.1799V47.5123H18.1406C10.7523 44.3664 5.42086 37.793 3.91633 30.0845H51.7782ZM38.044 27.4318C38.0559 26.849 38.3 26.294 38.724 25.8855C39.1481 25.4771 39.7184 25.2476 40.3128 25.2463C40.9077 25.2468 41.4788 25.4759 41.9035 25.8845C42.3282 26.293 42.5727 26.8485 42.5847 27.4318H38.044ZM40.3128 19.6109C44.721 19.6109 48.3088 23.1152 48.3322 27.4318H45.2911C45.2664 24.761 43.0438 22.5942 40.3128 22.5942C37.5823 22.5942 35.3622 24.761 35.3375 27.4318H32.2995C32.3242 23.1152 35.9071 19.6109 40.3128 19.6109Z" fill="#AD343E"/>
<path d="M39.7358 42.9139C39.9521 42.9139 40.1709 42.8637 40.3725 42.7568C42.0244 41.8897 43.4741 40.6947 44.6292 39.248C45.7843 37.8012 46.6195 36.1345 47.0815 34.3539C47.1258 34.1848 47.1356 34.0088 47.1104 33.8361C47.0851 33.6633 47.0254 33.4971 46.9345 33.347C46.8436 33.1969 46.7234 33.0659 46.5808 32.9615C46.4381 32.8571 46.2759 32.7813 46.1033 32.7385C45.9308 32.6957 45.7513 32.6867 45.5752 32.7121C45.3991 32.7374 45.2298 32.7967 45.0771 32.8863C44.9244 32.976 44.7912 33.0943 44.6852 33.2346C44.5793 33.3748 44.5026 33.5342 44.4595 33.7035C44.0907 35.1266 43.4235 36.4588 42.5006 37.6151C41.5777 38.7714 40.4192 39.7265 39.0991 40.4196C38.8329 40.5585 38.6217 40.7808 38.4993 41.051C38.3768 41.3213 38.35 41.6239 38.4232 41.9108C38.4965 42.1976 38.6655 42.4522 38.9033 42.634C39.1412 42.8158 39.4342 42.9143 39.7358 42.9139Z" fill="#474747"/>
<path d="M36.4626 45.0064C37.3484 45.0064 38.0664 44.3023 38.0664 43.4337C38.0664 42.5652 37.3484 41.8611 36.4626 41.8611C35.5769 41.8611 34.8589 42.5652 34.8589 43.4337C34.8589 44.3023 35.5769 45.0064 36.4626 45.0064Z" fill="#474747"/>
</g>
<defs>
<clipPath id="clip0_8_1982">
<rect width="56.0884" height="55" fill="white" transform="translate(0.5)"/>
</clipPath>
</defs>
</svg>
